# This file uses centimeters as units for non-parametric coordinates.

mtllib stone.mtl
g default
v -3.968860 0.097196 4.959310
v -3.836805 0.016626 5.164313
v -3.774647 0.280928 5.049949
v -3.850400 0.259439 4.760973
v -3.930831 -0.024019 4.707214
v -3.904787 -0.177709 4.962961
v -3.599377 0.100017 5.095870
v -3.550934 0.281084 4.863877
v -3.620378 0.085886 4.645098
v -3.735367 -0.165501 4.797450
v -3.614215 -0.076609 4.952341
v -3.508893 -0.011991 4.846852
vt 0.809500 0.077200
vt 0.871400 0.054000
vt 0.871400 0.115800
vt 0.815300 0.000000
vt 0.623600 0.373800
vt 0.681300 0.396500
vt 0.606500 0.431400
vt 0.573100 0.234100
vt 0.567800 0.157000
vt 0.632000 0.200700
vt 0.643500 0.265000
vt 0.261400 0.249400
vt 0.244400 0.199900
vt 0.325600 0.224400
vt 0.457700 0.340200
vt 0.383800 0.373800
vt 0.403300 0.320800
vt 0.681300 0.476800
vt 0.643500 0.126400
vt 0.275300 0.126400
vt 0.301600 0.176200
vt 0.358800 0.289600
vt 0.457700 0.262400
vt 0.618200 0.503300
vt 0.366700 0.139700
vt 0.377000 0.249400
vt 0.922800 0.201300
vt 0.955800 0.126400
vt 0.988000 0.201300
vt 0.366700 0.206500
vn -0.950324 0.231106 0.208505
vn -0.267009 -0.191707 0.944433
vn -0.174608 0.818036 0.548024
vn -0.267009 -0.191707 0.944433
vn -0.950324 0.231106 0.208505
vn -0.483034 -0.833958 0.266819
vn -0.950324 0.231106 0.208505
vn -0.174608 0.818036 0.548024
vn -0.453709 0.743215 -0.491710
vn -0.950324 0.231106 0.208505
vn -0.453709 0.743215 -0.491710
vn -0.671143 -0.250716 -0.697645
vn -0.950324 0.231106 0.208505
vn -0.671143 -0.250716 -0.697645
vn -0.483034 -0.833958 0.266819
vn -0.267009 -0.191707 0.944433
vn -0.483034 -0.833958 0.266819
vn 0.542605 -0.733407 0.409504
vn -0.174608 0.818036 0.548024
vn -0.267009 -0.191707 0.944433
vn 0.634133 0.032502 0.772541
vn -0.453709 0.743215 -0.491710
vn -0.174608 0.818036 0.548024
vn 0.665422 0.740924 -0.090803
vn -0.671143 -0.250716 -0.697645
vn -0.453709 0.743215 -0.491710
vn 0.401716 0.041202 -0.914837
vn -0.483034 -0.833958 0.266819
vn -0.671143 -0.250716 -0.697645
vn 0.181801 -0.906608 -0.380803
vn -0.267009 -0.191707 0.944433
vn 0.542605 -0.733407 0.409504
vn 0.634133 0.032502 0.772541
vn -0.174608 0.818036 0.548024
vn 0.634133 0.032502 0.772541
vn 0.665422 0.740924 -0.090803
vn -0.453709 0.743215 -0.491710
vn 0.665422 0.740924 -0.090803
vn 0.401716 0.041202 -0.914837
vn -0.671143 -0.250716 -0.697645
vn 0.401716 0.041202 -0.914837
vn 0.181801 -0.906608 -0.380803
vn -0.483034 -0.833958 0.266819
vn 0.181801 -0.906608 -0.380803
vn 0.542605 -0.733407 0.409504
vn 0.634133 0.032502 0.772541
vn 0.542605 -0.733407 0.409504
vn 0.919340 -0.378916 -0.106005
vn 0.665422 0.740924 -0.090803
vn 0.634133 0.032502 0.772541
vn 0.919340 -0.378916 -0.106005
vn 0.401716 0.041202 -0.914837
vn 0.665422 0.740924 -0.090803
vn 0.919340 -0.378916 -0.106005
vn 0.181801 -0.906608 -0.380803
vn 0.401716 0.041202 -0.914837
vn 0.919340 -0.378916 -0.106005
vn 0.542605 -0.733407 0.409504
vn 0.181801 -0.906608 -0.380803
vn 0.919340 -0.378916 -0.106005
s off
g polySurface76
f 1/1/1 2/2/2 3/3/3
f 2/2/4 1/1/5 6/4/6
f 1/5/7 3/6/8 4/7/9
f 1/8/10 4/9/11 5/10/12
f 1/8/13 5/10/14 6/11/15
f 2/12/16 6/13/17 11/14/18
f 3/15/19 2/16/20 7/17/21
f 4/7/22 3/6/23 8/18/24
f 5/10/25 4/9/26 9/19/27
f 6/13/28 5/20/29 10/21/30
f 2/16/31 11/22/32 7/17/33
f 3/15/34 7/17/35 8/23/36
f 4/7/37 8/18/38 9/24/39
f 5/20/40 9/25/41 10/21/42
f 6/13/43 10/21/44 11/14/45
f 7/17/46 11/22/47 12/26/48
f 8/23/49 7/17/50 12/26/51
f 9/27/52 8/28/53 12/29/54
f 10/21/55 9/25/56 12/30/57
f 11/14/58 10/21/59 12/30/60
